# xmcd CD database file
#
# Track frame offsets:
#	150
#	16175
#	40077
#	64930
#
# Disc length: 1287 seconds
#
# Revision: 3
# Processed by: cddbd v1.5.1PL0 Copyright (c) Steve Scherf et al.
# Submitted via: CDex 1.51
#
DISCID=29050504
DTITLE=Moorish, Lisa - Mr. Friday Night - CD Single
DYEAR=1996
DGENRE=Pop
TTITLE0=Mr. Friday Night (Radio Edit)
TTITLE1=Mr. Friday Night (R'N'B Mix)
TTITLE2=Mr. Friday Night (Lisa's 4 Bar Party)
TTITLE3=Mr. Friday Night (Goodefello's Vocal Mix)
EXTD=Submited by SoulMan. YEAR: 1996
EXTT0=
EXTT1=
EXTT2=
EXTT3=
PLAYORDER=
